<mxfile host="Electron" agent="Mozilla/5.0 (Windows NT 10.0; Win64; x64) AppleWebKit/537.36 (KHTML, like Gecko) draw.io/26.0.16 Chrome/132.0.6834.196 Electron/34.2.0 Safari/537.36" version="26.0.16">
  <diagram name="Page-1" id="8ewzdlLbwfYDV96zZUwU">
    <mxGraphModel dx="1434" dy="844" grid="1" gridSize="10" guides="1" tooltips="1" connect="1" arrows="1" fold="1" page="1" pageScale="1" pageWidth="1100" pageHeight="850" math="0" shadow="0">
      <root>
        <mxCell id="0" />
        <mxCell id="1" parent="0" />
        <mxCell id="Dt5veOutp8v7zIuwL2eG-1" value="Docker/Kubernetes Manager" style="rounded=0;whiteSpace=wrap;html=1;verticalAlign=top;align=left;" vertex="1" parent="1">
          <mxGeometry x="40" y="30" width="920" height="370" as="geometry" />
        </mxCell>
        <mxCell id="Dt5veOutp8v7zIuwL2eG-2" value="" style="image;sketch=0;aspect=fixed;html=1;points=[];align=center;fontSize=12;image=img/lib/mscae/Docker.svg;" vertex="1" parent="1">
          <mxGeometry x="900" y="50" width="50" height="41" as="geometry" />
        </mxCell>
        <mxCell id="Dt5veOutp8v7zIuwL2eG-3" value="" style="aspect=fixed;sketch=0;html=1;dashed=0;whitespace=wrap;verticalLabelPosition=bottom;verticalAlign=top;fillColor=#2875E2;strokeColor=#ffffff;points=[[0.005,0.63,0],[0.1,0.2,0],[0.9,0.2,0],[0.5,0,0],[0.995,0.63,0],[0.72,0.99,0],[0.5,1,0],[0.28,0.99,0]];shape=mxgraph.kubernetes.icon2;kubernetesLabel=1;prIcon=control_plane" vertex="1" parent="1">
          <mxGeometry x="840" y="43" width="50" height="48" as="geometry" />
        </mxCell>
        <mxCell id="Dt5veOutp8v7zIuwL2eG-4" value="Kafka Service Bus" style="rounded=0;whiteSpace=wrap;html=1;" vertex="1" parent="1">
          <mxGeometry x="70" y="100" width="770" height="60" as="geometry" />
        </mxCell>
        <mxCell id="Dt5veOutp8v7zIuwL2eG-5" value="" style="points=[];aspect=fixed;html=1;align=center;shadow=0;dashed=0;fillColor=#FF6A00;strokeColor=none;shape=mxgraph.alibaba_cloud.kafka;" vertex="1" parent="1">
          <mxGeometry x="770" y="109" width="56.699999999999996" height="42" as="geometry" />
        </mxCell>
        <mxCell id="Dt5veOutp8v7zIuwL2eG-6" value="Admin Interface" style="rounded=0;whiteSpace=wrap;html=1;align=left;" vertex="1" parent="1">
          <mxGeometry x="70" y="200" width="190" height="60" as="geometry" />
        </mxCell>
        <mxCell id="Dt5veOutp8v7zIuwL2eG-7" value="" style="aspect=fixed;sketch=0;html=1;dashed=0;whitespace=wrap;verticalLabelPosition=bottom;verticalAlign=top;fillColor=#2875E2;strokeColor=#ffffff;points=[[0.005,0.63,0],[0.1,0.2,0],[0.9,0.2,0],[0.5,0,0],[0.995,0.63,0],[0.72,0.99,0],[0.5,1,0],[0.28,0.99,0]];shape=mxgraph.kubernetes.icon2;kubernetesLabel=1;prIcon=api" vertex="1" parent="1">
          <mxGeometry x="190" y="206" width="50" height="48" as="geometry" />
        </mxCell>
        <mxCell id="Dt5veOutp8v7zIuwL2eG-8" style="edgeStyle=orthogonalEdgeStyle;rounded=0;orthogonalLoop=1;jettySize=auto;html=1;exitX=0.5;exitY=0;exitDx=0;exitDy=0;entryX=0.118;entryY=1;entryDx=0;entryDy=0;entryPerimeter=0;startArrow=classic;startFill=1;" edge="1" parent="1" source="Dt5veOutp8v7zIuwL2eG-6" target="Dt5veOutp8v7zIuwL2eG-4">
          <mxGeometry relative="1" as="geometry">
            <Array as="points">
              <mxPoint x="165" y="180" />
              <mxPoint x="161" y="180" />
            </Array>
          </mxGeometry>
        </mxCell>
        <mxCell id="Dt5veOutp8v7zIuwL2eG-9" value="Authorization Gateway Interface" style="rounded=0;whiteSpace=wrap;html=1;align=left;" vertex="1" parent="1">
          <mxGeometry x="70" y="316" width="310" height="60" as="geometry" />
        </mxCell>
        <mxCell id="Dt5veOutp8v7zIuwL2eG-10" value="" style="aspect=fixed;sketch=0;html=1;dashed=0;whitespace=wrap;verticalLabelPosition=bottom;verticalAlign=top;fillColor=#2875E2;strokeColor=#ffffff;points=[[0.005,0.63,0],[0.1,0.2,0],[0.9,0.2,0],[0.5,0,0],[0.995,0.63,0],[0.72,0.99,0],[0.5,1,0],[0.28,0.99,0]];shape=mxgraph.kubernetes.icon2;kubernetesLabel=1;prIcon=svc" vertex="1" parent="1">
          <mxGeometry x="260" y="322" width="50" height="48" as="geometry" />
        </mxCell>
        <mxCell id="Dt5veOutp8v7zIuwL2eG-11" value="" style="aspect=fixed;sketch=0;html=1;dashed=0;whitespace=wrap;verticalLabelPosition=bottom;verticalAlign=top;fillColor=#2875E2;strokeColor=#ffffff;points=[[0.005,0.63,0],[0.1,0.2,0],[0.9,0.2,0],[0.5,0,0],[0.995,0.63,0],[0.72,0.99,0],[0.5,1,0],[0.28,0.99,0]];shape=mxgraph.kubernetes.icon2;kubernetesLabel=1;prIcon=api" vertex="1" parent="1">
          <mxGeometry x="320" y="322" width="50" height="48" as="geometry" />
        </mxCell>
        <mxCell id="Dt5veOutp8v7zIuwL2eG-12" style="edgeStyle=orthogonalEdgeStyle;rounded=0;orthogonalLoop=1;jettySize=auto;html=1;exitX=0.75;exitY=0;exitDx=0;exitDy=0;entryX=0.301;entryY=1.033;entryDx=0;entryDy=0;entryPerimeter=0;startArrow=classic;startFill=1;" edge="1" parent="1" source="Dt5veOutp8v7zIuwL2eG-9" target="Dt5veOutp8v7zIuwL2eG-4">
          <mxGeometry relative="1" as="geometry" />
        </mxCell>
        <mxCell id="Dt5veOutp8v7zIuwL2eG-13" value="Credential Store" style="aspect=fixed;sketch=0;html=1;dashed=0;whitespace=wrap;verticalLabelPosition=bottom;verticalAlign=top;fillColor=#2875E2;strokeColor=#ffffff;points=[[0.005,0.63,0],[0.1,0.2,0],[0.9,0.2,0],[0.5,0,0],[0.995,0.63,0],[0.72,0.99,0],[0.5,1,0],[0.28,0.99,0]];shape=mxgraph.kubernetes.icon2;kubernetesLabel=1;prIcon=vol" vertex="1" parent="1">
          <mxGeometry x="460" y="268" width="50" height="48" as="geometry" />
        </mxCell>
        <mxCell id="Dt5veOutp8v7zIuwL2eG-14" value="Policy Store" style="aspect=fixed;sketch=0;html=1;dashed=0;whitespace=wrap;verticalLabelPosition=bottom;verticalAlign=top;fillColor=#2875E2;strokeColor=#ffffff;points=[[0.005,0.63,0],[0.1,0.2,0],[0.9,0.2,0],[0.5,0,0],[0.995,0.63,0],[0.72,0.99,0],[0.5,1,0],[0.28,0.99,0]];shape=mxgraph.kubernetes.icon2;kubernetesLabel=1;prIcon=vol" vertex="1" parent="1">
          <mxGeometry x="570" y="268" width="50" height="48" as="geometry" />
        </mxCell>
        <mxCell id="Dt5veOutp8v7zIuwL2eG-15" value="Asset Store" style="aspect=fixed;sketch=0;html=1;dashed=0;whitespace=wrap;verticalLabelPosition=bottom;verticalAlign=top;fillColor=#2875E2;strokeColor=#ffffff;points=[[0.005,0.63,0],[0.1,0.2,0],[0.9,0.2,0],[0.5,0,0],[0.995,0.63,0],[0.72,0.99,0],[0.5,1,0],[0.28,0.99,0]];shape=mxgraph.kubernetes.icon2;kubernetesLabel=1;prIcon=vol" vertex="1" parent="1">
          <mxGeometry x="680" y="268" width="50" height="48" as="geometry" />
        </mxCell>
        <mxCell id="Dt5veOutp8v7zIuwL2eG-16" style="edgeStyle=orthogonalEdgeStyle;rounded=0;orthogonalLoop=1;jettySize=auto;html=1;exitX=0.5;exitY=0;exitDx=0;exitDy=0;exitPerimeter=0;entryX=0.539;entryY=0.983;entryDx=0;entryDy=0;entryPerimeter=0;startArrow=classic;startFill=1;" edge="1" parent="1" source="Dt5veOutp8v7zIuwL2eG-13" target="Dt5veOutp8v7zIuwL2eG-4">
          <mxGeometry relative="1" as="geometry" />
        </mxCell>
        <mxCell id="Dt5veOutp8v7zIuwL2eG-17" style="edgeStyle=orthogonalEdgeStyle;rounded=0;orthogonalLoop=1;jettySize=auto;html=1;exitX=0.5;exitY=0;exitDx=0;exitDy=0;exitPerimeter=0;entryX=0.681;entryY=0.983;entryDx=0;entryDy=0;entryPerimeter=0;startArrow=classic;startFill=1;" edge="1" parent="1" source="Dt5veOutp8v7zIuwL2eG-14" target="Dt5veOutp8v7zIuwL2eG-4">
          <mxGeometry relative="1" as="geometry" />
        </mxCell>
        <mxCell id="Dt5veOutp8v7zIuwL2eG-18" style="edgeStyle=orthogonalEdgeStyle;rounded=0;orthogonalLoop=1;jettySize=auto;html=1;exitX=0.5;exitY=0;exitDx=0;exitDy=0;exitPerimeter=0;entryX=0.825;entryY=1.05;entryDx=0;entryDy=0;entryPerimeter=0;startArrow=classic;startFill=1;" edge="1" parent="1" source="Dt5veOutp8v7zIuwL2eG-15" target="Dt5veOutp8v7zIuwL2eG-4">
          <mxGeometry relative="1" as="geometry" />
        </mxCell>
      </root>
    </mxGraphModel>
  </diagram>
</mxfile>
